<svg width="111" height="111" viewBox="0 0 111 111" fill="none" xmlns="http://www.w3.org/2000/svg">
<rect width="111" height="111" fill="#FFCC00"/>
<path d="M23.8913 42.7275C28.323 39.2838 31.9995 41.6588 36.9063 47.3398C37.4573 47.981 38.1983 47.2305 38.621 46.8648C39.039 46.4943 45.5133 40.666 45.8315 40.4C46.145 40.1198 46.525 39.5972 46.0263 39.013C44.8249 37.5269 43.6483 36.021 42.497 34.4958C33.909 23.262 65.9905 15.643 61.0648 15.5243C58.5568 15.4578 48.4963 15.339 46.9905 15.5053C40.8963 16.1465 33.244 21.8418 29.3918 24.497C24.352 27.9455 22.471 29.969 22.1623 30.2493C20.7373 31.4938 21.9343 34.3675 19.3503 36.6333C16.619 39.0225 14.9138 37.2128 13.332 38.5998C12.5483 39.2933 10.3538 40.9368 9.72676 41.483C9.09501 42.0387 8.98101 42.9745 9.62701 43.7203C9.62701 43.7203 15.631 50.3513 16.1345 50.9403C16.6333 51.5198 17.9918 52.0233 18.8278 51.2775C19.6685 50.5365 21.8298 48.6508 22.1908 48.3183C22.5613 48.0048 21.9533 44.2285 23.8913 42.7275ZM51.0043 45.1833C50.4343 44.523 49.7265 44.504 49.1185 45.0455L42.307 50.9925C42.044 51.2311 41.8838 51.5624 41.8599 51.9166C41.8359 52.2709 41.9502 52.6207 42.1788 52.8925L81.5753 97.7278C82.4968 98.787 84.0928 98.8962 85.1425 97.9795L89.75 94.1178C90.2572 93.6712 90.5676 93.0425 90.6138 92.3683C90.6601 91.6941 90.4384 91.0289 89.997 90.5173L51.0043 45.1833ZM103.535 26.1025C103.183 23.756 101.967 24.2453 101.335 25.238C100.704 26.2403 97.9105 30.4725 96.761 32.3915C95.621 34.2915 92.809 38.0488 87.5745 34.339C82.1215 30.4868 84.0168 27.7983 84.9668 25.9885C85.9215 24.1693 88.8523 19.0678 89.275 18.436C89.6978 17.7948 89.2038 15.9328 87.5128 16.7118C85.817 17.4908 75.5285 21.5805 74.1035 27.4468C72.6453 33.4128 75.3243 38.747 70.066 44.0433L63.6868 50.6933L70.0945 58.1318L77.951 50.6742C79.8225 48.7933 83.822 46.9645 87.4415 47.791C95.1983 49.5438 99.4305 46.632 101.981 41.8155C104.271 37.512 103.891 28.449 103.535 26.1025ZM22.0103 91.0017C21.5351 91.4804 21.2685 92.1275 21.2685 92.802C21.2685 93.4764 21.5351 94.1236 22.0103 94.6023L26.5275 99.0197C27.5155 100.012 29.083 99.5945 30.071 98.6018L53.3793 75.6878L46.24 67.5462L22.0103 91.0017Z" fill="black"/>
</svg>
